<?xml version="1.0" encoding="UTF-8" standalone="no"?>
<!-- Created with Inkscape (http://www.inkscape.org/) -->

<svg
   xmlns:dc="http://purl.org/dc/elements/1.1/"
   xmlns:cc="http://creativecommons.org/ns#"
   xmlns:rdf="http://www.w3.org/1999/02/22-rdf-syntax-ns#"
   xmlns:svg="http://www.w3.org/2000/svg"
   xmlns="http://www.w3.org/2000/svg"
   xmlns:sodipodi="http://sodipodi.sourceforge.net/DTD/sodipodi-0.dtd"
   xmlns:inkscape="http://www.inkscape.org/namespaces/inkscape"
   id="svg2"
   version="1.1"
   inkscape:version="0.91 r13725"
   width="300"
   height="300"
   viewBox="0 0 300 300"
   sodipodi:docname="Beastybuttons Logo.svg">
  <metadata
     id="metadata8">
    <rdf:RDF>
      <cc:Work
         rdf:about="">
        <dc:format>image/svg+xml</dc:format>
        <dc:type
           rdf:resource="http://purl.org/dc/dcmitype/StillImage" />
        <dc:title></dc:title>
      </cc:Work>
    </rdf:RDF>
  </metadata>
  <defs
     id="defs6" />
  <sodipodi:namedview
     pagecolor="#ffffff"
     bordercolor="#666666"
     borderopacity="1"
     objecttolerance="10"
     gridtolerance="10"
     guidetolerance="10"
     inkscape:pageopacity="0"
     inkscape:pageshadow="2"
     inkscape:window-width="1536"
     inkscape:window-height="803"
     id="namedview4"
     showgrid="false"
     inkscape:zoom="0.61378413"
     inkscape:cx="260.00195"
     inkscape:cy="107.15995"
     inkscape:window-x="-8"
     inkscape:window-y="-8"
     inkscape:window-maximized="1"
     inkscape:current-layer="layer2" />
  <g
     inkscape:groupmode="layer"
     id="layer1"
     inkscape:label="Right Horn"
     style="display:inline"
     transform="translate(0,-469)">
    <path
       style="fill:#000000"
       d="m 203.16972,570.91069 c -2.35618,-0.0736 -3.53891,-0.34452 -5.95607,-1.36407 -2.4781,-1.04525 -3.08063,-1.4182 -5.66372,-3.50549 -2.38395,-1.9264 -4.81651,-4.80268 -5.97433,-7.06407 -1.3515,-2.63973 -1.35819,-2.68245 -0.51423,-3.28749 15.01374,-10.76357 17.8688,-13.5394 22.08266,-21.46994 1.68105,-3.16376 4.527,-10.7568 5.66411,-15.11198 0.45019,-1.72424 0.88887,-3.07702 0.97483,-3.00615 0.29088,0.23973 2.05173,11.69142 3.00622,19.55112 1.06686,8.78477 1.08372,12.00448 0.0947,18.0401 -0.94799,5.78481 -3.19814,12.14397 -5.14502,14.54038 -1.29964,1.59972 -5.09652,2.78613 -8.56912,2.67759 z"
       id="path3338"
       inkscape:connector-curvature="0"
       sodipodi:nodetypes="ssssssssssss" />
  </g>
  <g
     inkscape:groupmode="layer"
     id="layer2"
     inkscape:label="Left Horn"
     style="display:inline"
     transform="translate(0,-469)">
    <path
       style="display:inline;fill:#000000"
       d="m 95.42405,580.20669 c -2.21865,-0.30046 -3.2284,-0.86842 -4.65984,-2.62113 -3.06679,-3.75506 -5.98271,-9.58264 -7.83619,-15.66107 -0.91318,-2.99478 -1.07925,-4.07539 -1.80683,-11.75728 -0.72436,-7.64858 -1.28637,-18.26657 -1.12561,-21.26711 0.0604,-1.12759 0.12245,-1.04548 2.01729,2.67067 4.3481,8.52738 8.85819,14.72633 13.60282,18.69654 3.92878,3.28752 7.07944,5.07969 17.04321,9.69455 2.10139,0.97329 3.89501,1.86745 3.98584,1.987 0.0907,0.11957 -0.11341,1.20471 -0.45384,2.41143 -1.79282,6.35485 -7.56279,12.9504 -13.10359,14.97849 -1.85351,0.67846 -5.77921,1.12305 -7.66326,0.86791 z"
       id="path3338-4"
       inkscape:connector-curvature="0"
       sodipodi:nodetypes="sssssssscsss" />
  </g>
  <g
     inkscape:groupmode="layer"
     id="layer3"
     inkscape:label="Left B"
     style="display:inline"
     transform="translate(0,-469)">
    <text
       xml:space="preserve"
       style="font-style:normal;font-variant:normal;font-weight:normal;font-stretch:normal;font-size:147.08787537px;line-height:125%;font-family:Harrington;-inkscape-font-specification:Harrington;letter-spacing:0px;word-spacing:0px;display:inline;fill:#000000;fill-opacity:1;stroke:none;stroke-width:1px;stroke-linecap:butt;stroke-linejoin:miter;stroke-opacity:1"
       x="136.47308"
       y="672.52893"
       id="text3364"
       sodipodi:linespacing="125%"><tspan
         sodipodi:role="line"
         x="136.47308"
         y="672.52893"
         id="tspan3372">B</tspan></text>
  </g>
  <g
     inkscape:groupmode="layer"
     id="layer4"
     inkscape:label="Right B"
     style="display:inline"
     transform="translate(0,-469)">
    <text
       xml:space="preserve"
       style="font-style:normal;font-variant:normal;font-weight:normal;font-stretch:normal;font-size:147.08787537px;line-height:125%;font-family:Harrington;-inkscape-font-specification:Harrington;letter-spacing:0px;word-spacing:0px;display:inline;fill:#000000;fill-opacity:1;stroke:none;stroke-width:1px;stroke-linecap:butt;stroke-linejoin:miter;stroke-opacity:1"
       x="76.473083"
       y="682.52893"
       id="text3364-0"
       sodipodi:linespacing="125%"><tspan
         sodipodi:role="line"
         x="76.473083"
         y="682.52893"
         id="tspan3372-4">B</tspan></text>
  </g>
</svg>
